<svg xmlns="http://www.w3.org/2000/svg" width="48" height="48" fill="none"><mask id="a" width="46" height="46" x="1" y="1" maskUnits="userSpaceOnUse" style="mask-type:luminance"><path fill="#fff" d="M1.412 1.413H46.58V46.58H1.412V1.413Z"/></mask><g mask="url(#a)"><path fill="#673AB7" d="M46.58 40.308a6.272 6.272 0 0 1-6.273 6.273H7.686a6.273 6.273 0 0 1-6.274-6.273V7.686a6.273 6.273 0 0 1 6.274-6.273h32.621a6.272 6.272 0 0 1 6.273 6.273v32.622Z"/></g><path fill="#fff" d="M35.326 26.004c-.815-1.13-1.995-1.907-3.513-2.321 0 0 1.28-.464 2.434-2.196.69-1.104 1.042-2.434 1.042-3.99 0-2.697-.979-4.767-2.936-6.185-1.957-1.418-4.166-2.371-7.917-2.371H12.705v30.112H25.79c3.55-.025 6.223-.79 8.042-2.259 1.807-1.493 2.71-3.7 2.71-6.65 0-1.63-.401-3.01-1.217-4.14ZM20.233 13.96h5.332a3.448 3.448 0 0 1 3.45 3.45 3.448 3.448 0 0 1-3.45 3.451h-5.332v-6.9Zm6.273 20.075h-6.273v-7.528h6.273a3.759 3.759 0 0 1 3.764 3.764 3.759 3.759 0 0 1-3.764 3.764Z"/></svg>