<svg xmlns="http://www.w3.org/2000/svg" width="48" height="48" fill="none"><mask id="a" width="42" height="46" x="3" y="1" maskUnits="userSpaceOnUse" style="mask-type:luminance"><path fill="#fff" d="M3.621 1.23h40.752V46.76H3.621V1.23Z"/></mask><g mask="url(#a)"><path fill="#0277BD" d="M44.367 1.23H3.627l3.595 40.736 16.775 4.793 16.776-4.793 3.594-40.735Z"/></g><path fill="#039BE5" d="M23.998 4.826v38.22l13.42-3.835 2.996-34.385H23.998Z"/><path fill="#fff" d="M34.902 10.816H23.998v4.792h5.871l-.36 4.793h-5.511v4.792h5.272l-.36 5.392-4.912 1.677v5.032l9.466-3.115.839-13.778.599-9.585Z"/><path fill="#EEE" d="M23.998 10.816v4.792H13.334l-.36-4.792h11.024Zm-5.512 9.585.24 4.792h5.272v-4.792h-5.512Zm.48 7.188h-4.794l.36 6.59 9.466 3.115v-5.032l-4.913-1.677-.12-2.996Z"/></svg>