<svg xmlns="http://www.w3.org/2000/svg" width="48" height="48" fill="none"><path fill="#EDF1FA" fill-rule="evenodd" d="M10.907 11.669C12.717 7.213 17.246 3 24 3c7.265 0 13.458 4.94 14.822 12.934 1.85.227 3.835.777 5.494 1.832 2.11 1.34 3.684 3.507 3.684 6.647 0 3.036-1.294 5.282-3.421 6.703C42.538 32.479 39.859 33 37.125 33H30a1.5 1.5 0 0 1 0-3h7.125c2.422 0 4.431-.473 5.788-1.38C44.184 27.773 45 26.476 45 24.414c0-1.96-.91-3.237-2.293-4.116-1.452-.922-3.419-1.382-5.281-1.474a1.5 1.5 0 0 1-1.418-1.342C35.252 10.25 30.055 6 24 6c-5.718 0-9.374 3.772-10.572 7.508a1.5 1.5 0 0 1-1.286 1.035c-2.631.25-4.95 1.028-6.576 2.302C3.993 18.08 3 19.822 3 22.275c0 2.448 1.036 4.323 2.721 5.623C7.442 29.226 9.911 30 12.75 30H18a1.5 1.5 0 0 1 0 3h-5.25c-3.348 0-6.505-.908-8.862-2.727C1.495 28.426 0 25.688 0 22.275c0-3.409 1.444-6.01 3.715-7.79 1.983-1.555 4.535-2.442 7.192-2.816ZM16.939 36.45a1.5 1.5 0 0 1 2.12-.002L24 41.38l4.94-4.932a1.5 1.5 0 1 1 2.12 2.123l-6 5.99a1.5 1.5 0 0 1-2.12 0l-6-5.99a1.5 1.5 0 0 1-.002-2.121Z" clip-rule="evenodd"/><path fill="#EDF1FA" fill-rule="evenodd" d="M24 19.5a1.5 1.5 0 0 1 1.5 1.5v21.003a1.5 1.5 0 0 1-3 0V21a1.5 1.5 0 0 1 1.5-1.5Z" clip-rule="evenodd"/></svg>