<svg width="210" height="12" viewBox="0 0 210 12" fill="none" xmlns="http://www.w3.org/2000/svg">
<circle cx="6" cy="6" r="6" transform="rotate(-90 6 6)" fill="#C723B9"/>
<circle opacity="0.9" cx="28" cy="6" r="6" transform="rotate(-90 28 6)" fill="#C723B9"/>
<circle opacity="0.8" cx="50" cy="6" r="6" transform="rotate(-90 50 6)" fill="#C723B9"/>
<circle opacity="0.7" cx="72" cy="6" r="6" transform="rotate(-90 72 6)" fill="#C723B9"/>
<circle opacity="0.6" cx="94" cy="6" r="6" transform="rotate(-90 94 6)" fill="#C723B9"/>
<circle opacity="0.5" cx="116" cy="6" r="6" transform="rotate(-90 116 6)" fill="#C723B9"/>
<circle opacity="0.4" cx="138" cy="6" r="6" transform="rotate(-90 138 6)" fill="#C723B9"/>
<circle opacity="0.3" cx="160" cy="6" r="6" transform="rotate(-90 160 6)" fill="#C723B9"/>
<circle opacity="0.2" cx="182" cy="6" r="6" transform="rotate(-90 182 6)" fill="#C723B9"/>
<circle opacity="0.1" cx="204" cy="6" r="6" transform="rotate(-90 204 6)" fill="#C723B9"/>
</svg>
