<svg xmlns="http://www.w3.org/2000/svg" width="40" height="41" fill="none"><rect width="40" height="40" y=".5" fill="#2D0E8A" rx="20"/><path fill="#fff" fill-rule="evenodd" d="M19.995 7.5a13.738 13.738 0 0 0-8.867 3.247 13.594 13.594 0 0 0-4.64 8.185c-.52 3.19.117 6.46 1.799 9.224a13.677 13.677 0 0 0 7.379 5.869c.68.126.936-.295.936-.654 0-.358-.014-1.397-.018-2.533-3.808.823-4.613-1.607-4.613-1.607-.62-1.578-1.518-1.992-1.518-1.992-1.243-.843.093-.828.093-.828 1.375.097 2.098 1.405 2.098 1.405 1.22 2.08 3.203 1.478 3.983 1.127.122-.882.478-1.481.87-1.822-3.041-.342-6.238-1.51-6.238-6.725a5.254 5.254 0 0 1 1.41-3.653c-.14-.343-.61-1.727.134-3.606 0 0 1.15-.365 3.765 1.395 2.244-.61 4.61-.61 6.854 0 2.614-1.76 3.76-1.395 3.76-1.395.747 1.875.277 3.259.137 3.606A5.243 5.243 0 0 1 28.73 20.4c0 5.226-3.203 6.378-6.25 6.714.49.423.928 1.25.928 2.522 0 1.82-.016 3.286-.016 3.734 0 .363.247.787.94.654a13.677 13.677 0 0 0 7.38-5.87 13.548 13.548 0 0 0 1.798-9.225 13.594 13.594 0 0 0-4.642-8.185 13.737 13.737 0 0 0-8.87-3.245h-.004Z" clip-rule="evenodd"/><path fill="#fff" d="M11.49 27.043c-.03.067-.138.087-.226.04-.089-.047-.154-.135-.123-.205.032-.07.139-.088.227-.04.088.047.156.137.122.204ZM12.046 27.658a.228.228 0 0 1-.281-.063c-.089-.095-.107-.226-.039-.284.068-.059.19-.032.279.063.088.094.109.225.04.284ZM12.585 28.44c-.084.058-.226 0-.306-.117a.228.228 0 0 1-.07-.163.225.225 0 0 1 .07-.162c.084-.056.227 0 .306.115.08.115.082.268 0 .327ZM13.317 29.197c-.074.083-.226.06-.351-.052-.125-.113-.154-.266-.08-.347.075-.081.227-.058.357.052.129.11.154.266.074.347ZM14.344 29.64c-.034.105-.188.152-.342.107-.154-.045-.256-.171-.227-.28.03-.107.186-.157.342-.107.157.05.256.169.227.28ZM15.464 29.715c0 .11-.127.206-.29.208-.163.002-.297-.088-.297-.198 0-.111.127-.206.29-.208.163-.002.297.086.297.198ZM16.506 29.542c.02.11-.092.225-.256.252-.163.027-.306-.038-.326-.146-.02-.108.098-.226.256-.255.159-.03.306.038.326.149Z"/></svg>