<svg xmlns="http://www.w3.org/2000/svg" width="40" height="41" fill="none"><rect width="40" height="40" y=".5" fill="#2D0E8A" rx="20"/><path fill="#fff" fill-rule="evenodd" d="M32.34 20.795c0-.922-.083-1.808-.236-2.659H19.86v5.029h6.996a5.98 5.98 0 0 1-2.594 3.924v3.261h4.202c2.458-2.263 3.876-5.596 3.876-9.555Z" clip-rule="evenodd"/><path fill="#fff" fill-rule="evenodd" d="M19.86 33.5c3.51 0 6.453-1.164 8.604-3.15l-4.202-3.261c-1.164.78-2.653 1.24-4.402 1.24-3.386 0-6.252-2.286-7.274-5.359H8.243v3.368A12.995 12.995 0 0 0 19.86 33.5Z" clip-rule="evenodd"/><path fill="#fff" fill-rule="evenodd" d="M12.586 22.97a7.815 7.815 0 0 1-.408-2.47c0-.857.148-1.69.408-2.47v-3.368H8.243A12.995 12.995 0 0 0 6.86 20.5c0 2.098.502 4.083 1.383 5.838l4.343-3.368Z" clip-rule="evenodd"/><path fill="#fff" fill-rule="evenodd" d="M19.86 12.67c1.909 0 3.622.656 4.97 1.944l3.728-3.728C26.307 8.788 23.364 7.5 19.86 7.5a12.995 12.995 0 0 0-11.617 7.162l4.343 3.368c1.022-3.073 3.888-5.36 7.274-5.36Z" clip-rule="evenodd"/></svg>