<svg width="266" height="68" viewBox="0 0 266 68" fill="none" xmlns="http://www.w3.org/2000/svg">
<circle cx="3" cy="3" r="3" fill="#C8AFFF" fill-opacity="0.5"/>
<circle cx="29" cy="3" r="3" fill="#C8AFFF" fill-opacity="0.5"/>
<circle cx="55" cy="3" r="3" fill="#C8AFFF" fill-opacity="0.5"/>
<circle cx="81" cy="3" r="3" fill="#C8AFFF" fill-opacity="0.5"/>
<circle cx="107" cy="3" r="3" fill="#C8AFFF" fill-opacity="0.5"/>
<circle cx="133" cy="3" r="3" fill="#C8AFFF" fill-opacity="0.5"/>
<circle cx="159" cy="3" r="3" fill="#C8AFFF" fill-opacity="0.5"/>
<circle cx="185" cy="3" r="3" fill="#C8AFFF" fill-opacity="0.5"/>
<circle cx="211" cy="3" r="3" fill="#C8AFFF" fill-opacity="0.5"/>
<circle cx="237" cy="3" r="3" fill="#C8AFFF" fill-opacity="0.5"/>
<circle cx="263" cy="3" r="3" fill="#C8AFFF" fill-opacity="0.5"/>
<circle cx="3" cy="34" r="3" fill="#C8AFFF" fill-opacity="0.5"/>
<circle cx="29" cy="34" r="3" fill="#C8AFFF" fill-opacity="0.5"/>
<circle cx="55" cy="34" r="3" fill="#C8AFFF" fill-opacity="0.5"/>
<circle cx="81" cy="34" r="3" fill="#C8AFFF" fill-opacity="0.5"/>
<circle cx="107" cy="34" r="3" fill="#C8AFFF" fill-opacity="0.5"/>
<circle cx="133" cy="34" r="3" fill="#C8AFFF" fill-opacity="0.5"/>
<circle cx="159" cy="34" r="3" fill="#C8AFFF" fill-opacity="0.5"/>
<circle cx="185" cy="34" r="3" fill="#C8AFFF" fill-opacity="0.5"/>
<circle cx="211" cy="34" r="3" fill="#C8AFFF" fill-opacity="0.5"/>
<circle cx="237" cy="34" r="3" fill="#C8AFFF" fill-opacity="0.5"/>
<circle cx="263" cy="34" r="3" fill="#C8AFFF" fill-opacity="0.5"/>
<circle cx="3" cy="65" r="3" fill="#C8AFFF" fill-opacity="0.5"/>
<circle cx="29" cy="65" r="3" fill="#C8AFFF" fill-opacity="0.5"/>
<circle cx="55" cy="65" r="3" fill="#C8AFFF" fill-opacity="0.5"/>
<circle cx="81" cy="65" r="3" fill="#C8AFFF" fill-opacity="0.5"/>
<circle cx="107" cy="65" r="3" fill="#C8AFFF" fill-opacity="0.5"/>
<circle cx="133" cy="65" r="3" fill="#C8AFFF" fill-opacity="0.5"/>
<circle cx="159" cy="65" r="3" fill="#C8AFFF" fill-opacity="0.5"/>
<circle cx="185" cy="65" r="3" fill="#C8AFFF" fill-opacity="0.5"/>
<circle cx="211" cy="65" r="3" fill="#C8AFFF" fill-opacity="0.5"/>
<circle cx="237" cy="65" r="3" fill="#C8AFFF" fill-opacity="0.5"/>
<circle cx="263" cy="65" r="3" fill="#C8AFFF" fill-opacity="0.5"/>
</svg>
