<svg xmlns="http://www.w3.org/2000/svg" width="48" height="48" fill="none"><mask id="a" width="42" height="46" x="3" y="1" maskUnits="userSpaceOnUse" style="mask-type:luminance"><path fill="#fff" d="M3.798 1.056h40.416v45.888H3.798V1.056Z"/></mask><g mask="url(#a)"><path fill="#E44D26" d="M7.466 42.342 3.786 1.077h40.439l-3.683 41.259-16.562 4.587-16.514-4.581Z"/></g><path fill="#F16529" d="m37.387 39.708 3.149-35.257h-16.53v38.967l13.381-3.71Z"/><path fill="#EBEBEB" d="M23.988 9.512H11.31l1.366 15.304h11.33v-5.06h-6.7l-.462-5.182h7.162V9.512h-.018Zm.018 23.37-.022.007-5.638-1.522-.358-4.036h-5.085l.71 7.946 10.37 2.865.023-.007v-5.252Z"/><path fill="#fff" d="M23.988 24.816h6.235l-.573 6.562-5.647 1.523v5.266l10.379-2.876 1.39-15.538H24.006l-.018 5.063Zm12.56-13.946.121-1.358H23.986v5.06h12.228l.1-1.137.235-2.565Z"/></svg>