<svg xmlns="http://www.w3.org/2000/svg" width="48" height="48" fill="none"><mask id="a" width="46" height="46" x="1" y="1" maskUnits="userSpaceOnUse" style="mask-type:luminance"><path fill="#fff" d="M1.47 1.47h45.072v45.072H1.47V1.47Z"/></mask><g mask="url(#a)"><path fill="#FFD600" d="M1.47 1.47h45.072v45.072H1.47V1.47Z"/></g><path fill="#000001" d="M30.94 35.207c.866 1.408 1.807 2.756 3.802 2.756 1.675 0 2.554-.833 2.554-1.984 0-1.379-.91-1.868-2.752-2.67l-1.01-.432c-2.916-1.237-4.856-2.787-4.856-6.06 0-3.018 2.31-5.314 5.92-5.314 2.57 0 4.417.89 5.749 3.221l-3.148 2.012c-.692-1.237-1.44-1.724-2.601-1.724-1.185 0-1.935.748-1.935 1.724 0 1.207.752 1.696 2.486 2.443l1.01.43c3.437 1.464 5.375 2.96 5.375 6.32 0 3.62-2.86 5.605-6.698 5.605-3.755 0-5.887-1.884-7.074-4.217l3.177-2.11Zm-14.506.103c.633 1.134 1.596 2.007 2.98 2.007 1.325 0 2.088-.523 2.088-2.558V21.502h4.173V35.4c0 4.216-2.445 6.134-6.016 6.134-3.227 0-5.555-2.186-6.504-4.217l3.279-2.007Z"/></svg>