<svg xmlns="http://www.w3.org/2000/svg" width="40" height="41" fill="none"><rect width="40" height="40" y=".5" fill="#2D0E8A" rx="20"/><path fill="#fff" d="M29.376 9.5H10.624A1.624 1.624 0 0 0 9 11.124v18.752a1.624 1.624 0 0 0 1.624 1.624h18.752A1.624 1.624 0 0 0 31 29.876V11.124A1.624 1.624 0 0 0 29.376 9.5ZM15.557 28.241H12.25V17.735h3.307V28.24ZM13.901 16.28a1.9 1.9 0 1 1 1.91-1.898 1.87 1.87 0 0 1-1.91 1.898ZM27.75 28.25h-3.306v-5.74c0-1.692-.72-2.215-1.649-2.215-.98 0-1.943.74-1.943 2.258v5.697h-3.308V17.742h3.181v1.456h.043c.32-.646 1.438-1.75 3.144-1.75 1.846 0 3.84 1.095 3.84 4.303l-.002 6.5Z"/></svg>