<svg xmlns="http://www.w3.org/2000/svg" width="48" height="48" fill="none"><path fill="#8CC84B" d="M22.122 2.224c1.115-.631 2.537-.634 3.623 0l16.645 9.383c1.04.586 1.737 1.747 1.728 2.947v18.814c.007 1.25-.758 2.436-1.857 3.01l-16.555 9.34a3.614 3.614 0 0 1-2.332.406 3.648 3.648 0 0 1-1.345-.507l-4.968-2.871c-.339-.202-.719-.363-.959-.69.212-.284.588-.32.895-.446.691-.22 1.324-.558 1.96-.914.16-.112.356-.07.51.03l4.236 2.45c.302.175.608-.055.868-.202L40.826 33.8c.2-.098.312-.31.296-.53V14.637a.581.581 0 0 0-.349-.58l-16.513-9.3a.584.584 0 0 0-.324-.102.58.58 0 0 0-.324.1l-16.49 9.32a.576.576 0 0 0-.348.578v18.633c-.02.22.098.427.3.522l4.406 2.488c.828.446 1.844.697 2.755.37a2.051 2.051 0 0 0 .672-.413 2.118 2.118 0 0 0 .535-.777 2.068 2.068 0 0 0 .146-.774l.004-18.522c-.02-.275.24-.502.506-.474h2.118c.279-.007.498.289.46.565l-.004 18.638c.001 1.656-.679 3.456-2.21 4.269-1.887.975-4.22.77-6.084-.167L5.64 36.39c-1.115-.558-1.863-1.762-1.857-3.01V14.565a3.464 3.464 0 0 1 .28-1.33 3.435 3.435 0 0 1 1.507-1.654l16.552-9.358Zm4.8 13.042c2.406-.14 4.983-.092 7.148 1.094 1.677.908 2.606 2.815 2.637 4.68-.047.25-.31.39-.55.372-.696-.002-1.395.01-2.095-.004-.297.01-.468-.262-.506-.524-.2-.892-.687-1.775-1.526-2.205-1.287-.645-2.781-.613-4.186-.6-1.026.056-2.128.144-2.996.746-.669.457-.87 1.394-.631 2.121.223.534.84.705 1.343.864 2.902.758 5.974.697 8.821 1.682 1.178.407 2.33 1.2 2.734 2.432.527 1.653.297 3.63-.878 4.956-.953 1.093-2.34 1.673-3.727 2.01-1.844.41-3.756.42-5.627.237-1.76-.2-3.591-.664-4.95-1.862-1.162-1.01-1.728-2.581-1.672-4.097.014-.257.268-.435.515-.414h2.09c.282-.02.488.223.502.487.13.837.449 1.742 1.19 2.23 1.43.923 3.223.859 4.86.885 1.355-.06 2.877-.078 3.985-.975.585-.512.757-1.366.6-2.102-.172-.622-.837-.91-1.394-1.115-2.864-.906-5.972-.577-8.808-1.603-1.15-.407-2.264-1.176-2.706-2.36-.617-1.671-.334-3.744.966-5.026 1.254-1.275 3.094-1.767 4.835-1.943l.026.034Z"/></svg>