<svg xmlns="http://www.w3.org/2000/svg" width="48" height="48" fill="none"><path fill="#00D8FF" d="M28.018 23.966a3.933 3.933 0 0 1-.12.977 4.026 4.026 0 0 1-2.181 2.658 3.971 3.971 0 0 1-1.325.367 3.8 3.8 0 0 1-.592.014 3.808 3.808 0 0 1-.587-.072 3.961 3.961 0 0 1-1.11-.398 4.09 4.09 0 0 1-.805-.567 3.987 3.987 0 0 1-1.015-1.44 4.017 4.017 0 0 1 .607-4.09 3.992 3.992 0 0 1 1.389-1.085 4.206 4.206 0 0 1 .552-.212 3.938 3.938 0 0 1 .97-.169 3.923 3.923 0 0 1 .787.039 4.012 4.012 0 0 1 2.517 1.427 4.132 4.132 0 0 1 .438.655 4.033 4.033 0 0 1 .475 1.896Z"/><mask id="a" width="46" height="40" x="1" y="4" maskUnits="userSpaceOnUse" style="mask-type:luminance"><path fill="#fff" d="M1.485 4.896H46.51v38.24H1.485V4.896Z"/></mask><g mask="url(#a)"><path stroke="#00D8FF" stroke-width="2" d="M23.998 15.79c5.398 0 10.413.774 14.194 2.076 4.556 1.569 7.356 3.946 7.356 6.1 0 2.243-2.968 4.77-7.86 6.39-3.699 1.226-8.566 1.866-13.69 1.866-5.254 0-10.229-.6-13.97-1.879-4.731-1.618-7.581-4.177-7.581-6.378 0-2.135 2.674-4.495 7.166-6.061 3.795-1.323 8.933-2.115 14.384-2.115Z"/></g><mask id="b" width="46" height="44" x="1" y="2" maskUnits="userSpaceOnUse" style="mask-type:luminance"><path fill="#fff" d="M1.485 2.918H46.51v42.168H1.485V2.919Z"/></mask><g stroke="#00D8FF" stroke-width="2" mask="url(#b)"><path d="M16.882 19.9c2.697-4.677 5.873-8.635 8.89-11.261 3.634-3.164 7.092-4.403 8.957-3.327 1.943 1.12 2.648 4.955 1.608 10.004-.785 3.817-2.663 8.354-5.223 12.794-2.625 4.552-5.63 8.563-8.606 11.164-3.765 3.292-7.405 4.483-9.311 3.383-1.85-1.066-2.557-4.562-1.67-9.236.75-3.95 2.632-8.797 5.354-13.52V19.9Z"/><path d="M16.888 28.121c-2.704-4.671-4.545-9.4-5.314-13.326-.925-4.73-.27-8.346 1.592-9.425 1.941-1.124 5.614.18 9.468 3.602 2.914 2.588 5.906 6.48 8.473 10.916 2.632 4.548 4.605 9.155 5.372 13.032.971 4.907.185 8.656-1.719 9.76-1.848 1.07-5.23-.063-8.835-3.167-3.046-2.622-6.306-6.674-9.037-11.392Z"/></g></svg>