<svg width="68" height="266" viewBox="0 0 68 266" fill="none" xmlns="http://www.w3.org/2000/svg">
<circle cx="3" cy="263" r="3" transform="rotate(-90 3 263)" fill="#8B2082" fill-opacity="0.6"/>
<circle cx="3" cy="237" r="3" transform="rotate(-90 3 237)" fill="#8B2082" fill-opacity="0.6"/>
<circle cx="3" cy="211" r="3" transform="rotate(-90 3 211)" fill="#8B2082" fill-opacity="0.6"/>
<circle cx="3" cy="185" r="3" transform="rotate(-90 3 185)" fill="#8B2082" fill-opacity="0.6"/>
<circle cx="3" cy="159" r="3" transform="rotate(-90 3 159)" fill="#8B2082" fill-opacity="0.6"/>
<circle cx="3" cy="133" r="3" transform="rotate(-90 3 133)" fill="#8B2082" fill-opacity="0.6"/>
<circle cx="3" cy="107" r="3" transform="rotate(-90 3 107)" fill="#8B2082" fill-opacity="0.6"/>
<circle cx="3" cy="81" r="3" transform="rotate(-90 3 81)" fill="#8B2082" fill-opacity="0.6"/>
<circle cx="3" cy="55" r="3" transform="rotate(-90 3 55)" fill="#8B2082" fill-opacity="0.6"/>
<circle cx="3" cy="29" r="3" transform="rotate(-90 3 29)" fill="#8B2082" fill-opacity="0.6"/>
<circle cx="3" cy="3" r="3" transform="rotate(-90 3 3)" fill="#8B2082" fill-opacity="0.6"/>
<circle cx="34" cy="263" r="3" transform="rotate(-90 34 263)" fill="#8B2082" fill-opacity="0.6"/>
<circle cx="34" cy="237" r="3" transform="rotate(-90 34 237)" fill="#8B2082" fill-opacity="0.6"/>
<circle cx="34" cy="211" r="3" transform="rotate(-90 34 211)" fill="#8B2082" fill-opacity="0.6"/>
<circle cx="34" cy="185" r="3" transform="rotate(-90 34 185)" fill="#8B2082" fill-opacity="0.6"/>
<circle cx="34" cy="159" r="3" transform="rotate(-90 34 159)" fill="#8B2082" fill-opacity="0.6"/>
<circle cx="34" cy="133" r="3" transform="rotate(-90 34 133)" fill="#8B2082" fill-opacity="0.6"/>
<circle cx="34" cy="107" r="3" transform="rotate(-90 34 107)" fill="#8B2082" fill-opacity="0.6"/>
<circle cx="34" cy="81" r="3" transform="rotate(-90 34 81)" fill="#8B2082" fill-opacity="0.6"/>
<circle cx="34" cy="55" r="3" transform="rotate(-90 34 55)" fill="#8B2082" fill-opacity="0.6"/>
<circle cx="34" cy="29" r="3" transform="rotate(-90 34 29)" fill="#8B2082" fill-opacity="0.6"/>
<circle cx="34" cy="3" r="3" transform="rotate(-90 34 3)" fill="#8B2082" fill-opacity="0.6"/>
<circle cx="65" cy="263" r="3" transform="rotate(-90 65 263)" fill="#8B2082" fill-opacity="0.6"/>
<circle cx="65" cy="237" r="3" transform="rotate(-90 65 237)" fill="#8B2082" fill-opacity="0.6"/>
<circle cx="65" cy="211" r="3" transform="rotate(-90 65 211)" fill="#8B2082" fill-opacity="0.6"/>
<circle cx="65" cy="185" r="3" transform="rotate(-90 65 185)" fill="#8B2082" fill-opacity="0.6"/>
<circle cx="65" cy="159" r="3" transform="rotate(-90 65 159)" fill="#8B2082" fill-opacity="0.6"/>
<circle cx="65" cy="133" r="3" transform="rotate(-90 65 133)" fill="#8B2082" fill-opacity="0.6"/>
<circle cx="65" cy="107" r="3" transform="rotate(-90 65 107)" fill="#8B2082" fill-opacity="0.6"/>
<circle cx="65" cy="81" r="3" transform="rotate(-90 65 81)" fill="#8B2082" fill-opacity="0.6"/>
<circle cx="65" cy="55" r="3" transform="rotate(-90 65 55)" fill="#8B2082" fill-opacity="0.6"/>
<circle cx="65" cy="29" r="3" transform="rotate(-90 65 29)" fill="#8B2082" fill-opacity="0.6"/>
<circle cx="65" cy="3" r="3" transform="rotate(-90 65 3)" fill="#8B2082" fill-opacity="0.6"/>
</svg>
