<svg xmlns="http://www.w3.org/2000/svg" width="48" height="48" fill="none"><path fill="url(#a)" d="m44.825 9.219-19.712 35.25a1.071 1.071 0 0 1-1.866.007L3.143 9.222c-.45-.789.225-1.745 1.12-1.585l19.733 3.527c.126.023.255.023.381 0l19.321-3.522c.892-.163 1.57.786 1.127 1.577Z"/><path fill="url(#b)" d="M33.397 3.01 18.809 5.87a.536.536 0 0 0-.432.494l-.897 15.156a.536.536 0 0 0 .654.553l4.062-.937a.536.536 0 0 1 .645.63l-1.206 5.908a.536.536 0 0 0 .68.62l2.509-.762a.536.536 0 0 1 .68.62l-1.917 9.282c-.12.58.652.897.974.4l.215-.333 11.887-23.723a.536.536 0 0 0-.58-.766l-4.181.807a.536.536 0 0 1-.616-.674l2.728-9.46a.536.536 0 0 0-.617-.674Z"/><defs><linearGradient id="a" x1="2.652" x2="27.185" y1="6.377" y2="39.694" gradientUnits="userSpaceOnUse"><stop stop-color="#41D1FF"/><stop offset="1" stop-color="#BD34FE"/></linearGradient><linearGradient id="b" x1="22.863" x2="27.3" y1="3.786" y2="34.23" gradientUnits="userSpaceOnUse"><stop stop-color="#FFEA83"/><stop offset=".083" stop-color="#FFDD35"/><stop offset="1" stop-color="#FFA800"/></linearGradient></defs></svg>