<svg xmlns="http://www.w3.org/2000/svg" width="40" height="41" fill="none"><rect width="40" height="40" y=".5" fill="#2D0E8A" rx="20"/><path fill="#fff" d="m7.868 32.136 1.715-6.227a11.908 11.908 0 0 1-1.61-6.014c0-6.631 5.422-12.022 12.08-12.022 3.232 0 6.268 1.25 8.545 3.523a11.893 11.893 0 0 1 3.534 8.505c0 6.63-5.423 12.022-12.086 12.022h-.005c-2.022 0-4.01-.508-5.777-1.465l-6.396 1.678Zm6.703-3.852.365.22a10.105 10.105 0 0 0 5.11 1.395h.006c5.533 0 10.04-4.48 10.04-9.993a9.921 9.921 0 0 0-2.937-7.069 9.988 9.988 0 0 0-7.103-2.929c-5.533-.006-10.04 4.474-10.04 9.987 0 1.885.527 3.724 1.535 5.316l.238.38-1.014 3.685 3.8-.992Z"/><path fill="#061492" d="m8.291 31.715 1.657-6.014a11.511 11.511 0 0 1-1.564-5.8c.006-6.4 5.237-11.608 11.668-11.608 3.123 0 6.049 1.211 8.25 3.402a11.508 11.508 0 0 1 3.413 8.211c0 6.4-5.238 11.607-11.663 11.607h-.006c-1.952 0-3.87-.49-5.573-1.413l-6.182 1.615Z"/><path fill="url(#a)" d="m7.868 32.136 1.715-6.227a11.908 11.908 0 0 1-1.61-6.014c0-6.631 5.422-12.022 12.08-12.022 3.232 0 6.268 1.25 8.545 3.523a11.893 11.893 0 0 1 3.534 8.505c0 6.63-5.423 12.022-12.086 12.022h-.005c-2.022 0-4.01-.508-5.777-1.465l-6.396 1.678Zm6.703-3.852.365.22a10.105 10.105 0 0 0 5.11 1.395h.006c5.533 0 10.04-4.48 10.04-9.993a9.921 9.921 0 0 0-2.937-7.069 9.988 9.988 0 0 0-7.103-2.929c-5.533-.006-10.04 4.474-10.04 9.987 0 1.885.527 3.724 1.535 5.316l.238.38-1.014 3.685 3.8-.992Z"/><path fill="#fff" fill-rule="evenodd" d="M17.034 14.867c-.226-.502-.464-.514-.678-.52-.174-.005-.377-.005-.58-.005-.202 0-.527.075-.805.375s-1.054 1.026-1.054 2.508c0 1.476 1.083 2.906 1.234 3.108.15.202 2.091 3.332 5.156 4.538 2.55 1.003 3.07.801 3.62.75.551-.053 1.785-.727 2.04-1.43.25-.704.25-1.304.174-1.43-.075-.128-.278-.203-.58-.352-.3-.15-1.784-.877-2.062-.98-.278-.099-.48-.15-.678.15-.202.299-.782.974-.956 1.175-.173.202-.353.225-.654.075-.301-.15-1.275-.467-2.428-1.493-.898-.796-1.506-1.782-1.68-2.082-.174-.3-.017-.46.133-.61.134-.133.302-.352.452-.525.15-.173.203-.3.302-.502.098-.202.052-.375-.024-.525-.075-.144-.666-1.632-.932-2.225Z" clip-rule="evenodd"/><defs><linearGradient id="a" x1="20.002" x2="20.002" y1="32.134" y2="7.873" gradientUnits="userSpaceOnUse"><stop stop-color="#F9F9F9"/><stop offset="1" stop-color="#fff"/></linearGradient></defs></svg>